<svg width="16" height="18" viewBox="0 0 16 18" fill="none" xmlns="http://www.w3.org/2000/svg">
<path d="M8 10.5211C9.44974 10.5211 10.625 9.35854 10.625 7.9244C10.625 6.49027 9.44974 5.32767 8 5.32767C6.55025 5.32767 5.375 6.49027 5.375 7.9244C5.375 9.35854 6.55025 10.5211 8 10.5211Z" stroke="white" stroke-width="2" stroke-linecap="round" stroke-linejoin="round"/>
<path d="M12.9499 12.8209L9.23725 16.4936C8.90911 16.8179 8.46426 17 8.00044 17C7.53661 17 7.09176 16.8179 6.76363 16.4936L3.05013 12.8209C2.0712 11.8525 1.40455 10.6186 1.13448 9.27541C0.864413 7.93218 1.00306 6.53988 1.53288 5.2746C2.0627 4.00931 2.95991 2.92785 4.11105 2.16698C5.26218 1.40611 6.61555 1 8 1C9.38445 1 10.7378 1.40611 11.889 2.16698C13.0401 2.92785 13.9373 4.00931 14.4671 5.2746C14.9969 6.53988 15.1356 7.93218 14.8655 9.27541C14.5955 10.6186 13.9288 11.8525 12.9499 12.8209Z" stroke="white" stroke-width="2" stroke-linecap="round" stroke-linejoin="round"/>
</svg>
